# xmcd
#
# Track frame offsets: 
#        150
#        19613
#        46739
#        66160
#        90081
#        127962
#        160361
#        188250
#        203832
#        223715
#        248444
#        263101
#        276529
#        296246
#
# Disc length: 4098 seconds
#
# Revision: 0
# Processed by: cddbd v1.5.2PL0 Copyright (c) Steve Scherf et al.
# Submitted via: ExactAudioCopy v1.0b3
#
DISCID=c010000e
DTITLE=Razni izvodaci - Blueshand 65th Anniversary
DYEAR=2011
DGENRE=Blues
TTITLE0=Otac, sin i prijatelji - Motherless Children
TTITLE1=Black Cat Bone - Presence Of The Lord
TTITLE2=The Downstrokes - Rita Mae
TTITLE3=Colours Of Blue - Badge
TTITLE4=Bluesville - Crossroads
TTITLE5=Puzzle Blues Band - Ramblin' On My Mind
TTITLE6=Arthur - Further Up On The Road
TTITLE7=Mojo Stuff Band - Key To The Highway
TTITLE8=Little Red Rooster - After Midnight
TTITLE9=Never 2 Late - Layla
TTITLE10=Retro Guru - Tulsa Time
TTITLE11=Two 4 Blues - San Francisco Bay Blues
TTITLE12=Jukes - Hard To Thrill
TTITLE13=Ivan Skrabe - Before You Accuse Me
EXTD=
EXTT0=
EXTT1=
EXTT2=
EXTT3=
EXTT4=
EXTT5=
EXTT6=
EXTT7=
EXTT8=
EXTT9=
EXTT10=
EXTT11=
EXTT12=
EXTT13=
PLAYORDER=
